<?xml version="1.0" encoding="utf-8"?>
<!-- Generator: Adobe Illustrator 26.0.1, SVG Export Plug-In . SVG Version: 6.00 Build 0)  -->
<svg version="1.1" xmlns="http://www.w3.org/2000/svg" xmlns:xlink="http://www.w3.org/1999/xlink" x="0px" y="0px"
	 viewBox="0 0 250 250" style="enable-background:new 0 0 250 250;" xml:space="preserve">
<style type="text/css">
	.st0{opacity:0.6118;enable-background:new    ;}
	.st1{fill:#C0C0C0;}
	.st2{opacity:0.502;enable-background:new    ;}
</style>
<g id="Triangle_1_00000149339636046121011200000009480243139332138414_" class="st0">
	<g id="Triangle_1">
		<g>
			<path class="st1" d="M147.48,121.18l-29.72-17.66c-5.25,0.17-5.7,1.35-7.43,5.2l-0.8,32.81c1.27,3.68,3.46,5.42,7.82,4.83
				l30.13-16.86C150.15,126.74,150.16,123.92,147.48,121.18z"/>
		</g>
	</g>
</g>
<g id="Shape_1_00000183966534335633762140000018168265729554301623_" class="st2">
	<g id="Shape_1">
		<g>
			<path class="st1" d="M158,57c-5.09-23.91-18-41-18-41c-2.04-3.99-6-6-6-6c-14.52-3.41-22-1-22-1c-2.24,1.06-3,2-3,2
				C72.64,29.19,58,65,58,65c-16.6,30.16-8,68-8,68l2-1c9.34-70.74,58-79,58-79h4c35.28,30.72,39,74,39,74h1
				C168.72,101.16,158,57,158,57z"/>
		</g>
	</g>
</g>
<g id="Shape_1_copy_00000022551420473304581220000002908243075996796824_" class="st2">
	<g id="Shape_1_copy">
		<g>
			<path class="st1" d="M233.86,167.56c1.37-41.67-23.36-72.61-23.36-72.61C191.71,65.04,154,54.03,154,54.03l-0.07,2.3
				c58.28,43.49,42.27,91.26,42.27,91.26l-1.91,3.58c-44,16.19-84.01-2.04-84.01-2.04l-0.47,0.89
				c15.84,25.93,59.94,38.39,59.94,38.39c23.55,7.37,44.83,4.37,44.83,4.37c4.51,0.17,8.18-2.37,8.18-2.37
				c9.97-11.28,11.44-19.17,11.44-19.17C234.32,168.71,233.86,167.56,233.86,167.56z"/>
		</g>
	</g>
</g>
<g id="Shape_1_copy_3_00000173847233649856774500000009221327092625477770_" class="st2">
	<g id="Shape_1_copy_3">
		<g>
			<path class="st1" d="M162.8,185.86c-67.31,29.22-100.47-8.82-100.47-8.82l-2.1-3.45c8.53-45.85,44.24-71.06,44.24-71.06
				l-0.52-0.83c-30.06,0.89-63.06,32.34-63.06,32.34c-18.37,16.54-26.8,36.34-26.8,36.34c-2.48,3.81-2.21,8.25-2.21,8.25
				c4.49,14.31,10.51,19.56,10.51,19.56c2.11,1.39,3.34,1.57,3.34,1.57c35.3,22.32,74.87,16.28,74.87,16.28
				c35.63-1.38,64.17-28.97,64.17-28.97L162.8,185.86z"/>
		</g>
	</g>
</g>
</svg>
